<?xml version="1.0" ?><svg id="Mailbox" style="enable-background:new 0 0 32 32;" version="1.1" viewBox="0 0 32 32" xml:space="preserve" xmlns="http://www.w3.org/2000/svg" xmlns:xlink="http://www.w3.org/1999/xlink"><style type="text/css">
	.st0{fill:#F25949;}
	.st1{fill:#BC4937;}
	.st2{fill:#FBC34E;}
	.st3{fill:#393B3D;}
</style><g><path class="st0" d="M15.455,15.808V24.5h12.434v-8.692c0-3.172-2.288-5.753-5.1-5.753h-1.117v5.273   c1.226,0.421,2.115,1.577,2.115,2.949c0,1.726-1.397,3.13-3.115,3.13s-3.115-1.404-3.115-3.13c0-1.372,0.889-2.528,2.115-2.949   v-5.273h-9.316C13.167,10.055,15.455,12.636,15.455,15.808z"/><path class="st1" d="M15.455,24.5v-8.692c0-3.172-2.288-5.753-5.1-5.753H9.211c-2.812,0-5.1,2.581-5.1,5.753V24.5H15.455z"/><path class="st2" d="M21.672,18.277c0,0.553-0.447,1-1,1s-1-0.447-1-1v-2.949c-1.226,0.421-2.115,1.577-2.115,2.949   c0,1.726,1.397,3.13,3.115,3.13s3.115-1.404,3.115-3.13c0-1.372-0.889-2.528-2.115-2.949V18.277z"/><path class="st3" d="M19.672,15.328v2.949c0,0.553,0.447,1,1,1s1-0.447,1-1v-2.949v-5.273V7.5h4.442c0.553,0,1-0.448,1-1   s-0.447-1-1-1h-5.442c-0.553,0-1,0.448-1,1v3.555V15.328z"/><path class="st3" d="M29,24.5h-1.111H15.455H4.111H3c-0.552,0-1,0.447-1,1s0.448,1,1,1c7.273,0,18.693,0,26,0c0.553,0,1-0.447,1-1   S29.553,24.5,29,24.5z"/></g></svg>